<?xml version="1.0" encoding="UTF-8"?>
<svg xmlns="http://www.w3.org/2000/svg" xmlns:xlink="http://www.w3.org/1999/xlink" width="482.62pt" height="372.44pt" viewBox="0 0 482.62 372.44" version="1.1">
<defs>
<clipPath id="clip1">
  <path d="M 0 0 L 454 0 L 454 372.441406 L 0 372.441406 Z M 0 0 "/>
</clipPath>
<clipPath id="clip2">
  <path d="M 32 0 L 482.621094 0 L 482.621094 372.441406 L 32 372.441406 Z M 32 0 "/>
</clipPath>
</defs>
<g id="surface1">
<path style=" stroke:none;fill-rule:nonzero;fill:rgb(13.699341%,12.199402%,12.5%);fill-opacity:1;" d="M 140.507813 213.070313 C 143.621094 200.855469 144.472656 192.472656 143.066406 187.925781 C 141.65625 183.382813 138.046875 181.105469 132.234375 181.105469 C 126.558594 181.105469 121.851563 183.273438 118.113281 187.605469 C 114.371094 191.941406 110.890625 200.429688 107.667969 213.070313 L 91.753906 275.511719 C 87.878906 290.714844 86.589844 300.65625 87.898438 305.34375 C 89.203125 310.03125 92.761719 312.375 98.574219 312.375 C 102.085938 312.375 106.195313 310.566406 110.90625 306.941406 C 115.609375 303.320313 119.992188 293.554688 124.050781 277.640625 Z M 249.835938 105.457031 L 167.9375 105.457031 C 172.03125 89.402344 174.441406 79.28125 175.175781 75.089844 C 175.902344 70.902344 175.175781 67.382813 172.996094 64.539063 C 170.8125 61.699219 167.222656 60.277344 162.222656 60.277344 C 158.03125 60.277344 154.242188 61.628906 150.851563 64.328125 C 147.460938 67.027344 145.019531 70.507813 143.527344 74.769531 C 142.035156 79.03125 139.644531 87.628906 136.347656 100.554688 L 122.335938 155.535156 C 128.875 146.300781 136.792969 139.375 146.078125 134.757813 C 155.363281 130.144531 165.949219 127.832031 177.84375 127.832031 C 192.847656 127.832031 205.003906 132.09375 214.320313 140.617188 C 223.632813 149.140625 228.320313 159.371094 228.390625 171.304688 C 228.457031 183.238281 225.902344 199.363281 220.722656 219.679688 L 213.714844 247.167969 C 207.558594 271.320313 202.097656 289.292969 197.339844 301.082031 C 192.574219 312.875 185.097656 323.777344 174.910156 333.792969 C 164.722656 343.808594 152.261719 351.589844 137.539063 357.128906 C 122.816406 362.667969 106.601563 365.441406 88.898438 365.441406 C 66.867188 365.441406 49.640625 362.242188 37.21875 355.851563 C 24.792969 349.457031 16.289063 340.261719 11.71875 328.253906 C 7.140625 316.25 5.894531 303.640625 7.980469 290.429688 C 10.058594 277.214844 15.957031 251.574219 25.660156 213.496094 L 37.828125 165.765625 C 48.292969 124.707031 55.863281 97.25 60.542969 83.402344 C 65.222656 69.546875 73.261719 56.441406 84.65625 44.082031 C 96.046875 31.722656 109.660156 22.453125 125.496094 16.273438 C 141.328125 10.09375 158.570313 7.003906 177.222656 7.003906 C 200.195313 7.003906 218.050781 10.910156 230.792969 18.722656 C 243.53125 26.539063 251.265625 37.550781 253.996094 51.753906 C 256.726563 65.964844 255.339844 83.863281 249.835938 105.457031 "/>
<g clip-path="url(#clip1)" clip-rule="nonzero">
<path style="fill:none;stroke-width:140;stroke-linecap:butt;stroke-linejoin:miter;stroke:rgb(92.89856%,12.199402%,14.099121%);stroke-opacity:1;stroke-miterlimit:10;" d="M 1405.078125 1593.696875 C 1436.210938 1715.845313 1444.726563 1799.673438 1430.664063 1845.142188 C 1416.5625 1890.571875 1380.46875 1913.345313 1322.34375 1913.345313 C 1265.585938 1913.345313 1218.515625 1891.665625 1181.132813 1848.345313 C 1143.710938 1804.985938 1108.90625 1720.103125 1076.679688 1593.696875 L 917.539063 969.282813 C 878.789063 817.251563 865.898438 717.8375 878.984375 670.9625 C 892.03125 624.0875 927.617188 600.65 985.742188 600.65 C 1020.859375 600.65 1061.953125 618.735938 1109.0625 654.985938 C 1156.09375 691.196875 1199.921875 788.853125 1240.507813 947.99375 Z M 2498.359375 2669.829688 L 1679.375 2669.829688 C 1720.3125 2830.376563 1744.414063 2931.5875 1751.757813 2973.501563 C 1759.023438 3015.376563 1751.757813 3050.571875 1729.960938 3079.009375 C 1708.125 3107.407813 1672.226563 3121.626563 1622.226563 3121.626563 C 1580.3125 3121.626563 1542.421875 3108.110938 1508.515625 3081.11875 C 1474.609375 3054.126563 1450.195313 3019.321875 1435.273438 2976.704688 C 1420.351563 2934.0875 1396.445313 2848.110938 1363.476563 2718.853125 L 1223.359375 2169.048438 C 1288.75 2261.392188 1367.929688 2330.65 1460.78125 2376.821875 C 1553.632813 2422.954688 1659.492188 2446.079688 1778.4375 2446.079688 C 1928.476563 2446.079688 2050.039063 2403.4625 2143.203125 2318.228125 C 2236.328125 2232.99375 2283.203125 2130.689063 2283.90625 2011.353125 C 2284.570313 1892.017188 2259.023438 1730.767188 2207.226563 1527.603125 L 2137.148438 1252.720313 C 2075.585938 1011.196875 2020.976563 831.470313 1973.398438 713.579688 C 1925.742188 595.65 1850.976563 486.626563 1749.101563 386.470313 C 1647.226563 286.314063 1522.617188 208.501563 1375.390625 153.110938 C 1228.164063 97.720313 1066.015625 69.985938 888.984375 69.985938 C 668.671875 69.985938 496.40625 101.978125 372.1875 165.884375 C 247.929688 229.829688 162.890625 321.782813 117.1875 441.860938 C 71.40625 561.9 58.945313 687.99375 79.804688 820.103125 C 100.585938 952.251563 159.570313 1208.657813 256.601563 1589.439063 L 378.28125 2066.74375 C 482.929688 2477.329688 558.632813 2751.9 605.429688 2890.376563 C 652.226563 3028.93125 732.617188 3159.985938 846.5625 3283.579688 C 960.46875 3407.173438 1096.601563 3499.86875 1254.960938 3561.665625 C 1413.28125 3623.4625 1585.703125 3654.360938 1772.226563 3654.360938 C 2001.953125 3654.360938 2180.507813 3615.298438 2307.929688 3537.173438 C 2435.3125 3459.009375 2512.65625 3348.892188 2539.960938 3206.860938 C 2567.265625 3064.751563 2553.398438 2885.767188 2498.359375 2669.829688 Z M 2498.359375 2669.829688 " transform="matrix(0.1,0,0,-0.1,0,372.44)"/>
</g>
<path style=" stroke:none;fill-rule:nonzero;fill:rgb(13.699341%,12.199402%,12.5%);fill-opacity:1;" d="M 392.476563 89.046875 C 395.445313 77.398438 396.429688 69.691406 395.429688 65.925781 C 394.429688 62.164063 391.15625 60.277344 385.617188 60.277344 C 380.210938 60.277344 376.046875 62.300781 373.121094 66.351563 C 370.199219 70.398438 367.324219 77.964844 364.5 89.046875 L 357.820313 115.257813 C 355.175781 125.632813 354.425781 132.804688 355.578125 136.78125 C 356.722656 140.761719 359.867188 142.75 365.003906 142.75 C 370.40625 142.75 374.554688 140.796875 377.441406 136.886719 C 380.328125 132.984375 383.332031 124.921875 386.445313 112.699219 Z M 357.539063 232.464844 C 360.910156 219.253906 361.859375 210.480469 360.398438 206.148438 C 358.933594 201.8125 355.433594 199.648438 349.890625 199.648438 C 344.484375 199.648438 340.0625 201.742188 336.632813 205.933594 C 333.199219 210.125 329.761719 218.96875 326.324219 232.464844 L 314.914063 277.214844 C 311.113281 292.132813 309.988281 301.722656 311.535156 305.984375 C 313.085938 310.246094 316.699219 312.378906 322.371094 312.378906 C 328.183594 312.378906 332.65625 310.214844 335.789063 305.878906 C 338.921875 301.546875 342.421875 291.777344 346.296875 276.574219 Z M 419.617188 163.101563 C 430.339844 168.21875 437.652344 175.859375 441.546875 186.019531 C 445.445313 196.183594 442.519531 220.382813 432.773438 258.617188 C 425.671875 286.480469 417.867188 307.019531 409.363281 320.238281 C 400.855469 333.457031 388.09375 344.296875 371.074219 352.753906 C 354.050781 361.210938 333.039063 365.441406 308.039063 365.441406 C 283.710938 365.441406 265.484375 361.386719 253.359375 353.285156 C 241.234375 345.183594 233.800781 334.453125 231.058594 321.089844 C 228.3125 307.730469 230.910156 285.488281 238.847656 254.355469 C 244.171875 233.460938 250.3125 215.335938 257.265625 199.984375 C 264.21875 184.636719 276.914063 172.339844 295.351563 163.101563 C 286.515625 157.992188 280.988281 149.863281 278.761719 138.71875 C 276.535156 127.570313 277.609375 113.410156 281.988281 96.234375 C 289.550781 66.5625 303.058594 44.308594 322.519531 29.472656 C 341.976563 14.636719 367.316406 7.214844 398.535156 7.214844 C 434.617188 7.214844 457.542969 15.097656 467.3125 30.851563 C 477.082031 46.613281 478.238281 69.113281 470.785156 98.359375 C 466.042969 116.960938 460.355469 130.378906 453.734375 138.609375 C 447.105469 146.84375 435.730469 155.007813 419.617188 163.101563 "/>
<g clip-path="url(#clip2)" clip-rule="nonzero">
<path style="fill:none;stroke-width:140;stroke-linecap:butt;stroke-linejoin:miter;stroke:rgb(92.89856%,12.199402%,14.099121%);stroke-opacity:1;stroke-miterlimit:10;" d="M 3924.765625 2833.93125 C 3954.453125 2950.415625 3964.296875 3027.485938 3954.296875 3065.142188 C 3944.296875 3102.759375 3911.5625 3121.626563 3856.171875 3121.626563 C 3802.109375 3121.626563 3760.46875 3101.392188 3731.210938 3060.884375 C 3701.992188 3020.415625 3673.242188 2944.751563 3645 2833.93125 L 3578.203125 2571.821875 C 3551.757813 2468.071875 3544.257813 2396.353125 3555.78125 2356.5875 C 3567.226563 2316.782813 3598.671875 2296.9 3650.039063 2296.9 C 3704.0625 2296.9 3745.546875 2316.43125 3774.414063 2355.532813 C 3803.28125 2394.55625 3833.320313 2475.18125 3864.453125 2597.407813 Z M 3575.390625 1399.751563 C 3609.101563 1531.860938 3618.59375 1619.595313 3603.984375 1662.915625 C 3589.335938 1706.275 3554.335938 1727.915625 3498.90625 1727.915625 C 3444.84375 1727.915625 3400.625 1706.978125 3366.328125 1665.064063 C 3331.992188 1623.15 3297.617188 1534.7125 3263.242188 1399.751563 L 3149.140625 952.251563 C 3111.132813 803.071875 3099.882813 707.173438 3115.351563 664.55625 C 3130.859375 621.939063 3166.992188 600.610938 3223.710938 600.610938 C 3281.835938 600.610938 3326.5625 622.251563 3357.890625 665.610938 C 3389.21875 708.93125 3424.21875 806.626563 3462.96875 958.657813 Z M 4196.171875 2093.384375 C 4303.398438 2042.2125 4376.523438 1965.80625 4415.46875 1864.204688 C 4454.453125 1762.564063 4425.195313 1520.571875 4327.734375 1138.228125 C 4256.71875 859.595313 4178.671875 654.204688 4093.632813 522.017188 C 4008.554688 389.829688 3880.9375 281.43125 3710.742188 196.860938 C 3540.507813 112.290625 3330.390625 69.985938 3080.390625 69.985938 C 2837.109375 69.985938 2654.84375 110.532813 2533.59375 191.548438 C 2412.34375 272.564063 2338.007813 379.86875 2310.585938 513.501563 C 2283.125 647.095313 2309.101563 869.517188 2388.476563 1180.845313 C 2441.71875 1389.790625 2503.125 1571.040625 2572.65625 1724.55625 C 2642.1875 1878.032813 2769.140625 2001.001563 2953.515625 2093.384375 C 2865.15625 2144.478125 2809.882813 2225.767188 2787.617188 2337.2125 C 2765.351563 2448.696875 2776.09375 2590.298438 2819.882813 2762.05625 C 2895.507813 3058.775 3030.585938 3281.314063 3225.195313 3429.673438 C 3419.765625 3578.032813 3673.164063 3652.251563 3985.351563 3652.251563 C 4346.171875 3652.251563 4575.429688 3573.423438 4673.125 3415.884375 C 4770.820313 3258.267188 4782.382813 3033.267188 4707.851563 2740.80625 C 4660.429688 2554.790625 4603.554688 2420.610938 4537.34375 2338.30625 C 4471.054688 2255.9625 4357.304688 2174.321875 4196.171875 2093.384375 Z M 4196.171875 2093.384375 " transform="matrix(0.1,0,0,-0.1,0,372.44)"/>
</g>
</g>
</svg>
